<svg xmlns="http://www.w3.org/2000/svg" xmlns:xlink="http://www.w3.org/1999/xlink" width="500" zoomAndPan="magnify" viewBox="0 0 375 374.999991" height="500" preserveAspectRatio="xMidYMid meet" version="1.0"><defs><g/><clipPath id="2db0693348"><path d="M 12.972656 145.3125 L 97.261719 145.3125 L 97.261719 229.597656 L 12.972656 229.597656 Z M 12.972656 145.3125 " clip-rule="nonzero"/></clipPath><clipPath id="ce6275e94e"><path d="M 83.507812 164.761719 L 81.050781 164.761719 L 81.050781 148.554688 C 81.050781 148.125 80.96875 147.710938 80.804688 147.3125 C 80.640625 146.917969 80.40625 146.566406 80.101562 146.261719 C 79.796875 145.957031 79.449219 145.722656 79.050781 145.558594 C 78.652344 145.394531 78.238281 145.3125 77.808594 145.3125 L 32.425781 145.3125 C 31.996094 145.3125 31.582031 145.394531 31.183594 145.558594 C 30.785156 145.722656 30.4375 145.957031 30.132812 146.261719 C 29.828125 146.566406 29.59375 146.917969 29.429688 147.3125 C 29.265625 147.710938 29.183594 148.125 29.183594 148.554688 L 29.183594 164.761719 L 28.925781 164.761719 C 28.40625 164.761719 27.882812 164.789062 27.363281 164.839844 C 26.84375 164.894531 26.328125 164.96875 25.816406 165.074219 C 25.304688 165.175781 24.796875 165.300781 24.296875 165.453125 C 23.796875 165.605469 23.308594 165.78125 22.824219 165.984375 C 22.34375 166.183594 21.871094 166.40625 21.410156 166.652344 C 20.949219 166.898438 20.503906 167.167969 20.070312 167.457031 C 19.632812 167.746094 19.214844 168.058594 18.8125 168.390625 C 18.40625 168.722656 18.019531 169.070312 17.652344 169.441406 C 17.28125 169.808594 16.933594 170.195312 16.601562 170.601562 C 16.269531 171.003906 15.957031 171.421875 15.667969 171.859375 C 15.378906 172.292969 15.109375 172.738281 14.863281 173.199219 C 14.617188 173.660156 14.394531 174.132812 14.195312 174.613281 C 13.992188 175.097656 13.816406 175.585938 13.664062 176.085938 C 13.511719 176.585938 13.386719 177.09375 13.285156 177.605469 C 13.179688 178.117188 13.105469 178.632812 13.050781 179.152344 C 13 179.671875 12.972656 180.195312 12.972656 180.714844 L 12.972656 213.644531 C 12.972656 214.167969 13 214.691406 13.050781 215.210938 C 13.105469 215.730469 13.179688 216.246094 13.28125 216.757812 C 13.386719 217.269531 13.511719 217.777344 13.664062 218.273438 C 13.816406 218.773438 13.992188 219.265625 14.191406 219.75 C 14.394531 220.230469 14.617188 220.703125 14.863281 221.164062 C 15.109375 221.625 15.378906 222.070312 15.667969 222.503906 C 15.957031 222.941406 16.269531 223.359375 16.601562 223.761719 C 16.929688 224.167969 17.28125 224.550781 17.652344 224.921875 C 18.019531 225.292969 18.40625 225.640625 18.8125 225.972656 C 19.214844 226.304688 19.632812 226.617188 20.066406 226.90625 C 20.5 227.195312 20.949219 227.464844 21.410156 227.710938 C 21.871094 227.957031 22.34375 228.179688 22.824219 228.378906 C 23.308594 228.582031 23.796875 228.757812 24.296875 228.910156 C 24.796875 229.0625 25.304688 229.1875 25.816406 229.289062 C 26.328125 229.390625 26.84375 229.46875 27.363281 229.519531 C 27.882812 229.574219 28.40625 229.597656 28.925781 229.597656 L 81.308594 229.597656 C 81.832031 229.597656 82.351562 229.574219 82.871094 229.519531 C 83.390625 229.46875 83.90625 229.390625 84.417969 229.289062 C 84.929688 229.1875 85.4375 229.0625 85.9375 228.910156 C 86.4375 228.757812 86.929688 228.582031 87.410156 228.378906 C 87.894531 228.179688 88.363281 227.957031 88.824219 227.710938 C 89.285156 227.464844 89.734375 227.195312 90.167969 226.90625 C 90.601562 226.617188 91.019531 226.304688 91.425781 225.972656 C 91.828125 225.640625 92.214844 225.292969 92.582031 224.921875 C 92.953125 224.550781 93.304688 224.167969 93.636719 223.761719 C 93.964844 223.359375 94.277344 222.941406 94.566406 222.503906 C 94.859375 222.070312 95.125 221.625 95.371094 221.164062 C 95.617188 220.703125 95.84375 220.230469 96.042969 219.75 C 96.242188 219.265625 96.417969 218.773438 96.570312 218.273438 C 96.722656 217.777344 96.847656 217.269531 96.953125 216.757812 C 97.054688 216.246094 97.132812 215.730469 97.183594 215.210938 C 97.234375 214.691406 97.261719 214.167969 97.261719 213.644531 L 97.261719 178.515625 C 97.261719 177.613281 97.171875 176.71875 96.992188 175.832031 C 96.816406 174.949219 96.554688 174.089844 96.210938 173.253906 C 95.863281 172.421875 95.441406 171.628906 94.9375 170.878906 C 94.4375 170.128906 93.867188 169.433594 93.226562 168.796875 C 92.589844 168.15625 91.894531 167.585938 91.144531 167.085938 C 90.394531 166.582031 89.601562 166.160156 88.769531 165.8125 C 87.933594 165.46875 87.074219 165.207031 86.191406 165.03125 C 85.304688 164.851562 84.410156 164.765625 83.507812 164.761719 Z M 83.507812 171.246094 C 83.984375 171.246094 84.457031 171.292969 84.925781 171.386719 C 85.394531 171.480469 85.847656 171.621094 86.289062 171.800781 C 86.730469 171.984375 87.148438 172.210938 87.542969 172.472656 C 87.941406 172.738281 88.308594 173.039062 88.644531 173.378906 C 88.984375 173.714844 89.285156 174.082031 89.550781 174.480469 C 89.816406 174.875 90.039062 175.292969 90.222656 175.734375 C 90.402344 176.175781 90.542969 176.628906 90.636719 177.097656 C 90.730469 177.566406 90.777344 178.039062 90.777344 178.515625 L 90.777344 178.96875 L 81.050781 183.832031 L 81.050781 171.246094 Z M 74.566406 151.796875 L 74.566406 187.074219 L 55.117188 196.796875 L 35.667969 187.074219 L 35.667969 151.796875 Z M 28.925781 171.246094 L 29.183594 171.246094 L 29.183594 183.832031 L 19.625 179.054688 C 19.722656 178.511719 19.867188 177.980469 20.054688 177.464844 C 20.242188 176.945312 20.476562 176.449219 20.753906 175.972656 C 21.027344 175.496094 21.34375 175.046875 21.695312 174.625 C 22.050781 174.203125 22.4375 173.816406 22.859375 173.460938 C 23.28125 173.109375 23.730469 172.792969 24.207031 172.519531 C 24.683594 172.242188 25.183594 172.011719 25.699219 171.820312 C 26.214844 171.632812 26.746094 171.488281 27.289062 171.394531 C 27.828125 171.296875 28.375 171.246094 28.925781 171.246094 Z M 81.308594 223.117188 L 28.925781 223.117188 C 28.304688 223.113281 27.691406 223.054688 27.082031 222.929688 C 26.472656 222.808594 25.878906 222.628906 25.304688 222.390625 C 24.730469 222.152344 24.1875 221.859375 23.667969 221.515625 C 23.152344 221.171875 22.675781 220.777344 22.234375 220.339844 C 21.796875 219.898438 21.402344 219.421875 21.058594 218.902344 C 20.710938 218.386719 20.421875 217.84375 20.183594 217.269531 C 19.945312 216.695312 19.761719 216.101562 19.640625 215.492188 C 19.519531 214.882812 19.457031 214.269531 19.457031 213.644531 L 19.457031 186.21875 L 53.667969 203.339844 C 54.125 203.570312 54.609375 203.683594 55.117188 203.683594 C 55.628906 203.683594 56.109375 203.570312 56.566406 203.339844 L 90.777344 186.21875 L 90.777344 213.644531 C 90.777344 214.269531 90.714844 214.882812 90.59375 215.492188 C 90.472656 216.101562 90.292969 216.695312 90.054688 217.269531 C 89.816406 217.84375 89.523438 218.386719 89.175781 218.902344 C 88.832031 219.421875 88.441406 219.898438 88 220.339844 C 87.558594 220.777344 87.082031 221.171875 86.566406 221.515625 C 86.050781 221.859375 85.503906 222.152344 84.929688 222.390625 C 84.355469 222.628906 83.765625 222.808594 83.15625 222.929688 C 82.546875 223.054688 81.929688 223.113281 81.308594 223.117188 Z M 81.308594 223.117188 " clip-rule="nonzero"/></clipPath><linearGradient x1="3.4877" gradientTransform="matrix(3.241811, 0, 0, 3.241811, 9.732027, 142.070327)" y1="28.990173" x2="26.317076" gradientUnits="userSpaceOnUse" y2="0.453658" id="76b0199351"><stop stop-opacity="1" stop-color="rgb(99.238586%, 79.618835%, 6.719971%)" offset="0"/><stop stop-opacity="1" stop-color="rgb(99.221802%, 79.443359%, 6.542969%)" offset="0.0078125"/><stop stop-opacity="1" stop-color="rgb(99.201965%, 79.196167%, 6.283569%)" offset="0.015625"/><stop stop-opacity="1" stop-color="rgb(99.198914%, 79.034424%, 6.079102%)" offset="0.03125"/><stop stop-opacity="1" stop-color="rgb(99.198914%, 78.851318%, 5.836487%)" offset="0.046875"/><stop stop-opacity="1" stop-color="rgb(99.198914%, 78.669739%, 5.592346%)" offset="0.0625"/><stop stop-opacity="1" stop-color="rgb(99.198914%, 78.486633%, 5.349731%)" offset="0.078125"/><stop stop-opacity="1" stop-color="rgb(99.198914%, 78.305054%, 5.105591%)" offset="0.09375"/><stop stop-opacity="1" stop-color="rgb(99.198914%, 78.121948%, 4.862976%)" offset="0.109375"/><stop stop-opacity="1" stop-color="rgb(99.177551%, 77.897644%, 4.829407%)" offset="0.117187"/><stop stop-opacity="1" stop-color="rgb(99.124146%, 77.586365%, 5.082703%)" offset="0.125"/><stop stop-opacity="1" stop-color="rgb(99.058533%, 77.227783%, 5.415344%)" offset="0.132812"/><stop stop-opacity="1" stop-color="rgb(98.994446%, 76.870728%, 5.747986%)" offset="0.140625"/><stop stop-opacity="1" stop-color="rgb(98.928833%, 76.512146%, 6.082153%)" offset="0.148437"/><stop stop-opacity="1" stop-color="rgb(98.864746%, 76.153564%, 6.414795%)" offset="0.15625"/><stop stop-opacity="1" stop-color="rgb(98.799133%, 75.796509%, 6.747437%)" offset="0.164062"/><stop stop-opacity="1" stop-color="rgb(98.735046%, 75.437927%, 7.081604%)" offset="0.171875"/><stop stop-opacity="1" stop-color="rgb(98.669434%, 75.079346%, 7.414246%)" offset="0.179687"/><stop stop-opacity="1" stop-color="rgb(98.603821%, 74.72229%, 7.746887%)" offset="0.1875"/><stop stop-opacity="1" stop-color="rgb(98.539734%, 74.363708%, 8.079529%)" offset="0.195312"/><stop stop-opacity="1" stop-color="rgb(98.474121%, 74.005127%, 8.413696%)" offset="0.203125"/><stop stop-opacity="1" stop-color="rgb(98.410034%, 73.648071%, 8.746338%)" offset="0.210937"/><stop stop-opacity="1" stop-color="rgb(98.344421%, 73.28949%, 9.078979%)" offset="0.21875"/><stop stop-opacity="1" stop-color="rgb(98.280334%, 72.930908%, 9.413147%)" offset="0.226562"/><stop stop-opacity="1" stop-color="rgb(98.214722%, 72.573853%, 9.745789%)" offset="0.234375"/><stop stop-opacity="1" stop-color="rgb(98.149109%, 72.215271%, 10.07843%)" offset="0.242187"/><stop stop-opacity="1" stop-color="rgb(98.085022%, 71.856689%, 10.412598%)" offset="0.25"/><stop stop-opacity="1" stop-color="rgb(98.019409%, 71.499634%, 10.745239%)" offset="0.257813"/><stop stop-opacity="1" stop-color="rgb(97.955322%, 71.141052%, 11.077881%)" offset="0.265625"/><stop stop-opacity="1" stop-color="rgb(97.889709%, 70.783997%, 11.410522%)" offset="0.273438"/><stop stop-opacity="1" stop-color="rgb(97.825623%, 70.425415%, 11.74469%)" offset="0.28125"/><stop stop-opacity="1" stop-color="rgb(97.76001%, 70.066833%, 12.077332%)" offset="0.289063"/><stop stop-opacity="1" stop-color="rgb(97.694397%, 69.709778%, 12.409973%)" offset="0.296875"/><stop stop-opacity="1" stop-color="rgb(97.63031%, 69.351196%, 12.744141%)" offset="0.304688"/><stop stop-opacity="1" stop-color="rgb(97.564697%, 68.992615%, 13.076782%)" offset="0.3125"/><stop stop-opacity="1" stop-color="rgb(97.50061%, 68.635559%, 13.409424%)" offset="0.320312"/><stop stop-opacity="1" stop-color="rgb(97.434998%, 68.276978%, 13.742065%)" offset="0.328125"/><stop stop-opacity="1" stop-color="rgb(97.370911%, 67.918396%, 14.076233%)" offset="0.335938"/><stop stop-opacity="1" stop-color="rgb(97.305298%, 67.56134%, 14.408875%)" offset="0.34375"/><stop stop-opacity="1" stop-color="rgb(97.239685%, 67.202759%, 14.741516%)" offset="0.351562"/><stop stop-opacity="1" stop-color="rgb(97.175598%, 66.844177%, 15.075684%)" offset="0.359375"/><stop stop-opacity="1" stop-color="rgb(97.109985%, 66.487122%, 15.408325%)" offset="0.367188"/><stop stop-opacity="1" stop-color="rgb(97.045898%, 66.12854%, 15.740967%)" offset="0.375"/><stop stop-opacity="1" stop-color="rgb(96.980286%, 65.769958%, 16.073608%)" offset="0.382812"/><stop stop-opacity="1" stop-color="rgb(96.916199%, 65.412903%, 16.407776%)" offset="0.390625"/><stop stop-opacity="1" stop-color="rgb(96.850586%, 65.054321%, 16.740417%)" offset="0.398438"/><stop stop-opacity="1" stop-color="rgb(96.786499%, 64.69574%, 17.073059%)" offset="0.40625"/><stop stop-opacity="1" stop-color="rgb(96.720886%, 64.338684%, 17.407227%)" offset="0.414062"/><stop stop-opacity="1" stop-color="rgb(96.655273%, 63.980103%, 17.739868%)" offset="0.421875"/><stop stop-opacity="1" stop-color="rgb(96.591187%, 63.621521%, 18.07251%)" offset="0.429687"/><stop stop-opacity="1" stop-color="rgb(96.525574%, 63.264465%, 18.406677%)" offset="0.4375"/><stop stop-opacity="1" stop-color="rgb(96.461487%, 62.905884%, 18.739319%)" offset="0.444446"/><stop stop-opacity="1" stop-color="rgb(96.429443%, 62.727356%, 18.90564%)" offset="0.445312"/><stop stop-opacity="1" stop-color="rgb(96.395874%, 62.547302%, 19.07196%)" offset="0.453125"/><stop stop-opacity="1" stop-color="rgb(96.331787%, 62.190247%, 19.404602%)" offset="0.460937"/><stop stop-opacity="1" stop-color="rgb(96.266174%, 61.831665%, 19.73877%)" offset="0.46875"/><stop stop-opacity="1" stop-color="rgb(96.200562%, 61.473083%, 20.071411%)" offset="0.476562"/><stop stop-opacity="1" stop-color="rgb(96.136475%, 61.116028%, 20.404053%)" offset="0.484375"/><stop stop-opacity="1" stop-color="rgb(96.070862%, 60.757446%, 20.73822%)" offset="0.492187"/><stop stop-opacity="1" stop-color="rgb(96.006775%, 60.398865%, 21.070862%)" offset="0.5"/><stop stop-opacity="1" stop-color="rgb(95.941162%, 60.041809%, 21.403503%)" offset="0.507812"/><stop stop-opacity="1" stop-color="rgb(95.877075%, 59.683228%, 21.736145%)" offset="0.515625"/><stop stop-opacity="1" stop-color="rgb(95.811462%, 59.324646%, 22.070312%)" offset="0.523437"/><stop stop-opacity="1" stop-color="rgb(95.74585%, 58.96759%, 22.402954%)" offset="0.53125"/><stop stop-opacity="1" stop-color="rgb(95.681763%, 58.609009%, 22.735596%)" offset="0.539062"/><stop stop-opacity="1" stop-color="rgb(95.61615%, 58.250427%, 23.069763%)" offset="0.546875"/><stop stop-opacity="1" stop-color="rgb(95.552063%, 57.893372%, 23.402405%)" offset="0.554687"/><stop stop-opacity="1" stop-color="rgb(95.48645%, 57.53479%, 23.735046%)" offset="0.555554"/><stop stop-opacity="1" stop-color="rgb(95.454407%, 57.356262%, 23.901367%)" offset="0.5625"/><stop stop-opacity="1" stop-color="rgb(95.422363%, 57.176208%, 24.067688%)" offset="0.570312"/><stop stop-opacity="1" stop-color="rgb(95.35675%, 56.819153%, 24.401855%)" offset="0.578125"/><stop stop-opacity="1" stop-color="rgb(95.289612%, 56.428528%, 24.623108%)" offset="0.582031"/><stop stop-opacity="1" stop-color="rgb(95.256042%, 56.217957%, 24.67804%)" offset="0.585937"/><stop stop-opacity="1" stop-color="rgb(95.220947%, 55.986023%, 24.659729%)" offset="0.589844"/><stop stop-opacity="1" stop-color="rgb(95.185852%, 55.755615%, 24.642944%)" offset="0.59375"/><stop stop-opacity="1" stop-color="rgb(95.149231%, 55.523682%, 24.624634%)" offset="0.597656"/><stop stop-opacity="1" stop-color="rgb(95.114136%, 55.291748%, 24.606323%)" offset="0.601562"/><stop stop-opacity="1" stop-color="rgb(95.079041%, 55.059814%, 24.588013%)" offset="0.605469"/><stop stop-opacity="1" stop-color="rgb(95.043945%, 54.827881%, 24.571228%)" offset="0.609375"/><stop stop-opacity="1" stop-color="rgb(95.00885%, 54.595947%, 24.552917%)" offset="0.613281"/><stop stop-opacity="1" stop-color="rgb(94.973755%, 54.36554%, 24.536133%)" offset="0.617187"/><stop stop-opacity="1" stop-color="rgb(94.937134%, 54.133606%, 24.517822%)" offset="0.621094"/><stop stop-opacity="1" stop-color="rgb(94.902039%, 53.901672%, 24.501038%)" offset="0.625"/><stop stop-opacity="1" stop-color="rgb(94.866943%, 53.669739%, 24.482727%)" offset="0.628906"/><stop stop-opacity="1" stop-color="rgb(94.831848%, 53.439331%, 24.465942%)" offset="0.632812"/><stop stop-opacity="1" stop-color="rgb(94.795227%, 53.207397%, 24.447632%)" offset="0.636719"/><stop stop-opacity="1" stop-color="rgb(94.760132%, 52.975464%, 24.429321%)" offset="0.640625"/><stop stop-opacity="1" stop-color="rgb(94.725037%, 52.74353%, 24.411011%)" offset="0.644531"/><stop stop-opacity="1" stop-color="rgb(94.689941%, 52.511597%, 24.394226%)" offset="0.648437"/><stop stop-opacity="1" stop-color="rgb(94.65332%, 52.279663%, 24.375916%)" offset="0.652344"/><stop stop-opacity="1" stop-color="rgb(94.618225%, 52.049255%, 24.359131%)" offset="0.65625"/><stop stop-opacity="1" stop-color="rgb(94.58313%, 51.817322%, 24.34082%)" offset="0.660156"/><stop stop-opacity="1" stop-color="rgb(94.548035%, 51.585388%, 24.324036%)" offset="0.664062"/><stop stop-opacity="1" stop-color="rgb(94.512939%, 51.353455%, 24.305725%)" offset="0.667969"/><stop stop-opacity="1" stop-color="rgb(94.477844%, 51.123047%, 24.28894%)" offset="0.671875"/><stop stop-opacity="1" stop-color="rgb(94.441223%, 50.891113%, 24.27063%)" offset="0.675781"/><stop stop-opacity="1" stop-color="rgb(94.406128%, 50.65918%, 24.252319%)" offset="0.679687"/><stop stop-opacity="1" stop-color="rgb(94.371033%, 50.427246%, 24.234009%)" offset="0.683594"/><stop stop-opacity="1" stop-color="rgb(94.335938%, 50.195312%, 24.217224%)" offset="0.6875"/><stop stop-opacity="1" stop-color="rgb(94.299316%, 49.963379%, 24.198914%)" offset="0.691406"/><stop stop-opacity="1" stop-color="rgb(94.264221%, 49.732971%, 24.182129%)" offset="0.695312"/><stop stop-opacity="1" stop-color="rgb(94.229126%, 49.501038%, 24.163818%)" offset="0.699219"/><stop stop-opacity="1" stop-color="rgb(94.194031%, 49.269104%, 24.147034%)" offset="0.703125"/><stop stop-opacity="1" stop-color="rgb(94.158936%, 49.03717%, 24.128723%)" offset="0.707031"/><stop stop-opacity="1" stop-color="rgb(94.12384%, 48.806763%, 24.111938%)" offset="0.710937"/><stop stop-opacity="1" stop-color="rgb(94.087219%, 48.574829%, 24.093628%)" offset="0.714844"/><stop stop-opacity="1" stop-color="rgb(94.052124%, 48.342896%, 24.075317%)" offset="0.71875"/><stop stop-opacity="1" stop-color="rgb(94.017029%, 48.110962%, 24.057007%)" offset="0.722656"/><stop stop-opacity="1" stop-color="rgb(93.981934%, 47.879028%, 24.040222%)" offset="0.726562"/><stop stop-opacity="1" stop-color="rgb(93.945312%, 47.647095%, 24.021912%)" offset="0.730469"/><stop stop-opacity="1" stop-color="rgb(93.910217%, 47.416687%, 24.005127%)" offset="0.734375"/><stop stop-opacity="1" stop-color="rgb(93.875122%, 47.184753%, 23.986816%)" offset="0.738281"/><stop stop-opacity="1" stop-color="rgb(93.840027%, 46.95282%, 23.970032%)" offset="0.742188"/><stop stop-opacity="1" stop-color="rgb(93.804932%, 46.720886%, 23.951721%)" offset="0.746094"/><stop stop-opacity="1" stop-color="rgb(93.769836%, 46.490479%, 23.934937%)" offset="0.75"/><stop stop-opacity="1" stop-color="rgb(93.733215%, 46.258545%, 23.916626%)" offset="0.753906"/><stop stop-opacity="1" stop-color="rgb(93.69812%, 46.026611%, 23.898315%)" offset="0.757812"/><stop stop-opacity="1" stop-color="rgb(93.663025%, 45.794678%, 23.880005%)" offset="0.761719"/><stop stop-opacity="1" stop-color="rgb(93.62793%, 45.562744%, 23.86322%)" offset="0.765625"/><stop stop-opacity="1" stop-color="rgb(93.591309%, 45.330811%, 23.84491%)" offset="0.769531"/><stop stop-opacity="1" stop-color="rgb(93.556213%, 45.100403%, 23.828125%)" offset="0.773438"/><stop stop-opacity="1" stop-color="rgb(93.521118%, 44.868469%, 23.809814%)" offset="0.777344"/><stop stop-opacity="1" stop-color="rgb(93.486023%, 44.636536%, 23.79303%)" offset="0.78125"/><stop stop-opacity="1" stop-color="rgb(93.450928%, 44.404602%, 23.774719%)" offset="0.785156"/><stop stop-opacity="1" stop-color="rgb(93.415833%, 44.174194%, 23.756409%)" offset="0.789063"/><stop stop-opacity="1" stop-color="rgb(93.379211%, 43.942261%, 23.738098%)" offset="0.792969"/><stop stop-opacity="1" stop-color="rgb(93.344116%, 43.710327%, 23.721313%)" offset="0.796875"/><stop stop-opacity="1" stop-color="rgb(93.309021%, 43.478394%, 23.703003%)" offset="0.800781"/><stop stop-opacity="1" stop-color="rgb(93.273926%, 43.24646%, 23.686218%)" offset="0.804688"/><stop stop-opacity="1" stop-color="rgb(93.237305%, 43.014526%, 23.667908%)" offset="0.808594"/><stop stop-opacity="1" stop-color="rgb(93.202209%, 42.784119%, 23.651123%)" offset="0.8125"/><stop stop-opacity="1" stop-color="rgb(93.167114%, 42.552185%, 23.632812%)" offset="0.816406"/><stop stop-opacity="1" stop-color="rgb(93.132019%, 42.320251%, 23.616028%)" offset="0.820313"/><stop stop-opacity="1" stop-color="rgb(93.095398%, 42.088318%, 23.597717%)" offset="0.824219"/><stop stop-opacity="1" stop-color="rgb(93.060303%, 41.85791%, 23.579407%)" offset="0.828125"/><stop stop-opacity="1" stop-color="rgb(93.025208%, 41.625977%, 23.561096%)" offset="0.832031"/><stop stop-opacity="1" stop-color="rgb(92.990112%, 41.394043%, 23.544312%)" offset="0.835938"/><stop stop-opacity="1" stop-color="rgb(92.955017%, 41.162109%, 23.526001%)" offset="0.839844"/><stop stop-opacity="1" stop-color="rgb(92.919922%, 40.930176%, 23.509216%)" offset="0.84375"/><stop stop-opacity="1" stop-color="rgb(92.878723%, 40.524292%, 23.487854%)" offset="0.847656"/><stop stop-opacity="1" stop-color="rgb(92.837524%, 40.118408%, 23.466492%)" offset="0.851563"/><stop stop-opacity="1" stop-color="rgb(92.793274%, 39.642334%, 23.443604%)" offset="0.855469"/><stop stop-opacity="1" stop-color="rgb(92.750549%, 39.16626%, 23.420715%)" offset="0.859375"/><stop stop-opacity="1" stop-color="rgb(92.706299%, 38.690186%, 23.396301%)" offset="0.863281"/><stop stop-opacity="1" stop-color="rgb(92.663574%, 38.214111%, 23.373413%)" offset="0.867188"/><stop stop-opacity="1" stop-color="rgb(92.62085%, 37.738037%, 23.350525%)" offset="0.871094"/><stop stop-opacity="1" stop-color="rgb(92.578125%, 37.261963%, 23.327637%)" offset="0.875"/><stop stop-opacity="1" stop-color="rgb(92.533875%, 36.785889%, 23.304749%)" offset="0.878906"/><stop stop-opacity="1" stop-color="rgb(92.49115%, 36.309814%, 23.28186%)" offset="0.882812"/><stop stop-opacity="1" stop-color="rgb(92.446899%, 35.83374%, 23.258972%)" offset="0.886719"/><stop stop-opacity="1" stop-color="rgb(92.404175%, 35.357666%, 23.236084%)" offset="0.890625"/><stop stop-opacity="1" stop-color="rgb(92.36145%, 34.881592%, 23.21167%)" offset="0.894531"/><stop stop-opacity="1" stop-color="rgb(92.318726%, 34.405518%, 23.188782%)" offset="0.898438"/><stop stop-opacity="1" stop-color="rgb(92.274475%, 33.929443%, 23.165894%)" offset="0.902344"/><stop stop-opacity="1" stop-color="rgb(92.23175%, 33.453369%, 23.143005%)" offset="0.90625"/><stop stop-opacity="1" stop-color="rgb(92.1875%, 32.977295%, 23.120117%)" offset="0.910156"/><stop stop-opacity="1" stop-color="rgb(92.144775%, 32.502747%, 23.097229%)" offset="0.914062"/><stop stop-opacity="1" stop-color="rgb(92.100525%, 32.026672%, 23.074341%)" offset="0.917969"/><stop stop-opacity="1" stop-color="rgb(92.0578%, 31.550598%, 23.051453%)" offset="0.921875"/><stop stop-opacity="1" stop-color="rgb(92.015076%, 31.074524%, 23.027039%)" offset="0.925781"/><stop stop-opacity="1" stop-color="rgb(91.972351%, 30.59845%, 23.00415%)" offset="0.929688"/><stop stop-opacity="1" stop-color="rgb(91.928101%, 30.122375%, 22.981262%)" offset="0.933594"/><stop stop-opacity="1" stop-color="rgb(91.885376%, 29.646301%, 22.958374%)" offset="0.9375"/><stop stop-opacity="1" stop-color="rgb(91.841125%, 29.170227%, 22.935486%)" offset="0.941406"/><stop stop-opacity="1" stop-color="rgb(91.798401%, 28.694153%, 22.912598%)" offset="0.945312"/><stop stop-opacity="1" stop-color="rgb(91.755676%, 28.218079%, 22.889709%)" offset="0.949219"/><stop stop-opacity="1" stop-color="rgb(91.712952%, 27.742004%, 22.866821%)" offset="0.953125"/><stop stop-opacity="1" stop-color="rgb(91.668701%, 27.26593%, 22.842407%)" offset="0.957031"/><stop stop-opacity="1" stop-color="rgb(91.625977%, 26.789856%, 22.819519%)" offset="0.960938"/><stop stop-opacity="1" stop-color="rgb(91.581726%, 26.313782%, 22.796631%)" offset="0.964844"/><stop stop-opacity="1" stop-color="rgb(91.539001%, 25.837708%, 22.773743%)" offset="0.96875"/><stop stop-opacity="1" stop-color="rgb(91.494751%, 25.361633%, 22.750854%)" offset="0.972656"/><stop stop-opacity="1" stop-color="rgb(91.452026%, 24.885559%, 22.727966%)" offset="0.976562"/><stop stop-opacity="1" stop-color="rgb(91.424561%, 24.59259%, 22.712708%)" offset="0.980469"/><stop stop-opacity="1" stop-color="rgb(91.398621%, 24.299622%, 22.698975%)" offset="0.984375"/><stop stop-opacity="1" stop-color="rgb(91.398621%, 24.299622%, 22.698975%)" offset="1"/></linearGradient><clipPath id="46ef741738"><path d="M 42.148438 158.28125 L 68.085938 158.28125 L 68.085938 164.761719 L 42.148438 164.761719 Z M 42.148438 158.28125 " clip-rule="nonzero"/></clipPath><linearGradient x1="11.951052" gradientTransform="matrix(3.241811, 0, 0, 3.241811, 9.732027, 142.070327)" y1="8.560852" x2="16.048642" gradientUnits="userSpaceOnUse" y2="3.438902" id="6a3dbcf0ff"><stop stop-opacity="1" stop-color="rgb(95.298767%, 56.498718%, 24.699402%)" offset="0"/><stop stop-opacity="1" stop-color="rgb(95.272827%, 56.332397%, 24.685669%)" offset="0.03125"/><stop stop-opacity="1" stop-color="rgb(95.222473%, 55.999756%, 24.661255%)" offset="0.0625"/><stop stop-opacity="1" stop-color="rgb(95.172119%, 55.667114%, 24.635315%)" offset="0.09375"/><stop stop-opacity="1" stop-color="rgb(95.120239%, 55.334473%, 24.609375%)" offset="0.125"/><stop stop-opacity="1" stop-color="rgb(95.069885%, 55.003357%, 24.584961%)" offset="0.15625"/><stop stop-opacity="1" stop-color="rgb(95.019531%, 54.670715%, 24.559021%)" offset="0.1875"/><stop stop-opacity="1" stop-color="rgb(94.967651%, 54.338074%, 24.533081%)" offset="0.21875"/><stop stop-opacity="1" stop-color="rgb(94.917297%, 54.005432%, 24.508667%)" offset="0.238094"/><stop stop-opacity="1" stop-color="rgb(94.892883%, 53.839111%, 24.49646%)" offset="0.25"/><stop stop-opacity="1" stop-color="rgb(94.866943%, 53.672791%, 24.482727%)" offset="0.28125"/><stop stop-opacity="1" stop-color="rgb(94.815063%, 53.340149%, 24.456787%)" offset="0.3125"/><stop stop-opacity="1" stop-color="rgb(94.764709%, 53.007507%, 24.432373%)" offset="0.34375"/><stop stop-opacity="1" stop-color="rgb(94.714355%, 52.674866%, 24.406433%)" offset="0.375"/><stop stop-opacity="1" stop-color="rgb(94.662476%, 52.342224%, 24.380493%)" offset="0.40625"/><stop stop-opacity="1" stop-color="rgb(94.612122%, 52.009583%, 24.356079%)" offset="0.4375"/><stop stop-opacity="1" stop-color="rgb(94.561768%, 51.676941%, 24.330139%)" offset="0.46875"/><stop stop-opacity="1" stop-color="rgb(94.511414%, 51.344299%, 24.304199%)" offset="0.5"/><stop stop-opacity="1" stop-color="rgb(94.459534%, 51.011658%, 24.279785%)" offset="0.53125"/><stop stop-opacity="1" stop-color="rgb(94.40918%, 50.679016%, 24.253845%)" offset="0.5625"/><stop stop-opacity="1" stop-color="rgb(94.358826%, 50.346375%, 24.227905%)" offset="0.59375"/><stop stop-opacity="1" stop-color="rgb(94.306946%, 50.013733%, 24.203491%)" offset="0.625"/><stop stop-opacity="1" stop-color="rgb(94.256592%, 49.681091%, 24.177551%)" offset="0.65625"/><stop stop-opacity="1" stop-color="rgb(94.206238%, 49.34845%, 24.151611%)" offset="0.6875"/><stop stop-opacity="1" stop-color="rgb(94.154358%, 49.015808%, 24.127197%)" offset="0.71875"/><stop stop-opacity="1" stop-color="rgb(94.104004%, 48.683167%, 24.101257%)" offset="0.75"/><stop stop-opacity="1" stop-color="rgb(94.05365%, 48.350525%, 24.075317%)" offset="0.761906"/><stop stop-opacity="1" stop-color="rgb(94.02771%, 48.184204%, 24.06311%)" offset="0.78125"/><stop stop-opacity="1" stop-color="rgb(94.00177%, 48.017883%, 24.050903%)" offset="0.8125"/><stop stop-opacity="1" stop-color="rgb(93.951416%, 47.685242%, 24.024963%)" offset="0.84375"/><stop stop-opacity="1" stop-color="rgb(93.901062%, 47.3526%, 23.999023%)" offset="0.875"/><stop stop-opacity="1" stop-color="rgb(93.849182%, 47.019958%, 23.974609%)" offset="0.90625"/><stop stop-opacity="1" stop-color="rgb(93.798828%, 46.687317%, 23.948669%)" offset="0.9375"/><stop stop-opacity="1" stop-color="rgb(93.748474%, 46.354675%, 23.922729%)" offset="0.96875"/><stop stop-opacity="1" stop-color="rgb(93.696594%, 46.022034%, 23.898315%)" offset="1"/></linearGradient><clipPath id="a183fb7252"><path d="M 42.148438 171.246094 L 55.117188 171.246094 L 55.117188 177.730469 L 42.148438 177.730469 Z M 42.148438 171.246094 " clip-rule="nonzero"/></clipPath><linearGradient x1="10.732023" gradientTransform="matrix(3.241811, 0, 0, 3.241811, 9.732027, 142.070327)" y1="11.585621" x2="13.268623" gradientUnits="userSpaceOnUse" y2="8.414894" id="30563047a4"><stop stop-opacity="1" stop-color="rgb(96.009827%, 60.415649%, 21.055603%)" offset="0"/><stop stop-opacity="1" stop-color="rgb(95.980835%, 60.256958%, 21.203613%)" offset="0.0625"/><stop stop-opacity="1" stop-color="rgb(95.922852%, 59.938049%, 21.499634%)" offset="0.125"/><stop stop-opacity="1" stop-color="rgb(95.864868%, 59.620667%, 21.795654%)" offset="0.1875"/><stop stop-opacity="1" stop-color="rgb(95.806885%, 59.301758%, 22.091675%)" offset="0.25"/><stop stop-opacity="1" stop-color="rgb(95.750427%, 58.982849%, 22.387695%)" offset="0.3125"/><stop stop-opacity="1" stop-color="rgb(95.692444%, 58.665466%, 22.683716%)" offset="0.375"/><stop stop-opacity="1" stop-color="rgb(95.63446%, 58.346558%, 22.979736%)" offset="0.384614"/><stop stop-opacity="1" stop-color="rgb(95.605469%, 58.187866%, 23.127747%)" offset="0.4375"/><stop stop-opacity="1" stop-color="rgb(95.576477%, 58.029175%, 23.275757%)" offset="0.5"/><stop stop-opacity="1" stop-color="rgb(95.518494%, 57.710266%, 23.571777%)" offset="0.5625"/><stop stop-opacity="1" stop-color="rgb(95.46051%, 57.391357%, 23.867798%)" offset="0.615386"/><stop stop-opacity="1" stop-color="rgb(95.433044%, 57.232666%, 24.015808%)" offset="0.625"/><stop stop-opacity="1" stop-color="rgb(95.404053%, 57.073975%, 24.163818%)" offset="0.6875"/><stop stop-opacity="1" stop-color="rgb(95.346069%, 56.755066%, 24.459839%)" offset="0.75"/><stop stop-opacity="1" stop-color="rgb(95.28656%, 56.404114%, 24.642944%)" offset="0.8125"/><stop stop-opacity="1" stop-color="rgb(95.239258%, 56.109619%, 24.668884%)" offset="0.84375"/><stop stop-opacity="1" stop-color="rgb(95.207214%, 55.903625%, 24.653625%)" offset="0.875"/><stop stop-opacity="1" stop-color="rgb(95.176697%, 55.697632%, 24.638367%)" offset="0.90625"/><stop stop-opacity="1" stop-color="rgb(95.144653%, 55.491638%, 24.621582%)" offset="0.9375"/><stop stop-opacity="1" stop-color="rgb(95.114136%, 55.28717%, 24.606323%)" offset="0.96875"/><stop stop-opacity="1" stop-color="rgb(95.082092%, 55.081177%, 24.591064%)" offset="1"/></linearGradient></defs><g clip-path="url(#2db0693348)"><g clip-path="url(#ce6275e94e)"><path fill="url(#76b0199351)" d="M 12.972656 145.3125 L 12.972656 229.597656 L 97.261719 229.597656 L 97.261719 145.3125 Z M 12.972656 145.3125 " fill-rule="nonzero"/></g></g><g clip-path="url(#46ef741738)"><path fill="url(#6a3dbcf0ff)" d="M 42.148438 158.28125 L 42.148438 164.761719 L 68.085938 164.761719 L 68.085938 158.28125 Z M 42.148438 158.28125 " fill-rule="nonzero"/></g><g clip-path="url(#a183fb7252)"><path fill="url(#30563047a4)" d="M 42.148438 171.246094 L 42.148438 177.730469 L 55.117188 177.730469 L 55.117188 171.246094 Z M 42.148438 171.246094 " fill-rule="nonzero"/></g><g fill="#401f0f" fill-opacity="1"><g transform="translate(107.274453, 198.273514)"><g><path d="M 10.921875 -7.609375 L 8.21875 -4.9375 L 8.21875 0 L 2.59375 0 L 2.59375 -26.765625 L 8.21875 -26.765625 L 8.21875 -11.609375 L 16.4375 -19.40625 L 23.15625 -19.40625 L 15.078125 -11.171875 L 23.875 0 L 17.0625 0 Z M 10.921875 -7.609375 "/></g></g></g><g fill="#401f0f" fill-opacity="1"><g transform="translate(130.352301, 198.273514)"><g><path d="M 21.59375 -9.625 C 21.59375 -9.550781 21.5625 -9.046875 21.5 -8.109375 L 6.8125 -8.109375 C 7.082031 -6.910156 7.707031 -5.960938 8.6875 -5.265625 C 9.675781 -4.566406 10.90625 -4.21875 12.375 -4.21875 C 13.382812 -4.21875 14.28125 -4.367188 15.0625 -4.671875 C 15.84375 -4.972656 16.566406 -5.445312 17.234375 -6.09375 L 20.234375 -2.84375 C 18.398438 -0.757812 15.726562 0.28125 12.21875 0.28125 C 10.03125 0.28125 8.09375 -0.140625 6.40625 -0.984375 C 4.726562 -1.835938 3.429688 -3.019531 2.515625 -4.53125 C 1.609375 -6.050781 1.15625 -7.773438 1.15625 -9.703125 C 1.15625 -11.597656 1.601562 -13.304688 2.5 -14.828125 C 3.40625 -16.359375 4.644531 -17.550781 6.21875 -18.40625 C 7.789062 -19.257812 9.550781 -19.6875 11.5 -19.6875 C 13.40625 -19.6875 15.125 -19.273438 16.65625 -18.453125 C 18.195312 -17.640625 19.40625 -16.46875 20.28125 -14.9375 C 21.15625 -13.414062 21.59375 -11.644531 21.59375 -9.625 Z M 11.546875 -15.4375 C 10.265625 -15.4375 9.191406 -15.070312 8.328125 -14.34375 C 7.460938 -13.625 6.9375 -12.640625 6.75 -11.390625 L 16.296875 -11.390625 C 16.109375 -12.617188 15.582031 -13.597656 14.71875 -14.328125 C 13.851562 -15.066406 12.796875 -15.4375 11.546875 -15.4375 Z M 11.546875 -15.4375 "/></g></g></g><g fill="#401f0f" fill-opacity="1"><g transform="translate(152.384421, 198.273514)"><g><path d="M 15.109375 -0.9375 C 14.554688 -0.53125 13.875 -0.222656 13.0625 -0.015625 C 12.257812 0.179688 11.414062 0.28125 10.53125 0.28125 C 8.21875 0.28125 6.429688 -0.304688 5.171875 -1.484375 C 3.910156 -2.660156 3.28125 -4.390625 3.28125 -6.671875 L 3.28125 -14.640625 L 0.28125 -14.640625 L 0.28125 -18.96875 L 3.28125 -18.96875 L 3.28125 -23.6875 L 8.90625 -23.6875 L 8.90625 -18.96875 L 13.734375 -18.96875 L 13.734375 -14.640625 L 8.90625 -14.640625 L 8.90625 -6.75 C 8.90625 -5.925781 9.113281 -5.289062 9.53125 -4.84375 C 9.957031 -4.40625 10.554688 -4.1875 11.328125 -4.1875 C 12.210938 -4.1875 12.96875 -4.425781 13.59375 -4.90625 Z M 15.109375 -0.9375 "/></g></g></g><g fill="#401f0f" fill-opacity="1"><g transform="translate(167.348856, 198.273514)"><g><path d="M 11.96875 0.28125 C 9.90625 0.28125 8.050781 -0.140625 6.40625 -0.984375 C 4.757812 -1.835938 3.472656 -3.019531 2.546875 -4.53125 C 1.617188 -6.050781 1.15625 -7.773438 1.15625 -9.703125 C 1.15625 -11.617188 1.617188 -13.332031 2.546875 -14.84375 C 3.472656 -16.363281 4.757812 -17.550781 6.40625 -18.40625 C 8.050781 -19.257812 9.90625 -19.6875 11.96875 -19.6875 C 14.007812 -19.6875 15.796875 -19.257812 17.328125 -18.40625 C 18.859375 -17.550781 19.96875 -16.332031 20.65625 -14.75 L 16.296875 -12.40625 C 15.285156 -14.1875 13.832031 -15.078125 11.9375 -15.078125 C 10.46875 -15.078125 9.253906 -14.59375 8.296875 -13.625 C 7.335938 -12.664062 6.859375 -11.359375 6.859375 -9.703125 C 6.859375 -8.046875 7.335938 -6.734375 8.296875 -5.765625 C 9.253906 -4.804688 10.46875 -4.328125 11.9375 -4.328125 C 13.863281 -4.328125 15.316406 -5.21875 16.296875 -7 L 20.65625 -4.609375 C 19.96875 -3.078125 18.859375 -1.878906 17.328125 -1.015625 C 15.796875 -0.148438 14.007812 0.28125 11.96875 0.28125 Z M 11.96875 0.28125 "/></g></g></g><g fill="#401f0f" fill-opacity="1"><g transform="translate(187.938596, 198.273514)"><g><path d="M 14.390625 -19.6875 C 16.796875 -19.6875 18.738281 -18.960938 20.21875 -17.515625 C 21.695312 -16.078125 22.4375 -13.941406 22.4375 -11.109375 L 22.4375 0 L 16.8125 0 L 16.8125 -10.234375 C 16.8125 -11.773438 16.472656 -12.925781 15.796875 -13.6875 C 15.117188 -14.445312 14.144531 -14.828125 12.875 -14.828125 C 11.457031 -14.828125 10.328125 -14.382812 9.484375 -13.5 C 8.640625 -12.625 8.21875 -11.320312 8.21875 -9.59375 L 8.21875 0 L 2.59375 0 L 2.59375 -26.765625 L 8.21875 -26.765625 L 8.21875 -17.375 C 8.96875 -18.125 9.867188 -18.695312 10.921875 -19.09375 C 11.984375 -19.488281 13.140625 -19.6875 14.390625 -19.6875 Z M 14.390625 -19.6875 "/></g></g></g><g fill="#401f0f" fill-opacity="1"><g transform="translate(212.134292, 198.273514)"><g><path d="M 14.203125 0.4375 C 10.597656 0.4375 7.789062 -0.554688 5.78125 -2.546875 C 3.78125 -4.546875 2.78125 -7.398438 2.78125 -11.109375 L 2.78125 -25.25 L 8.625 -25.25 L 8.625 -11.328125 C 8.625 -6.804688 10.5 -4.546875 14.25 -4.546875 C 16.070312 -4.546875 17.460938 -5.09375 18.421875 -6.1875 C 19.390625 -7.28125 19.875 -8.992188 19.875 -11.328125 L 19.875 -25.25 L 25.640625 -25.25 L 25.640625 -11.109375 C 25.640625 -7.398438 24.632812 -4.546875 22.625 -2.546875 C 20.625 -0.554688 17.816406 0.4375 14.203125 0.4375 Z M 14.203125 0.4375 "/></g></g></g><g fill="#401f0f" fill-opacity="1"><g transform="translate(239.827761, 198.273514)"><g><path d="M 14.0625 -19.6875 C 15.863281 -19.6875 17.503906 -19.269531 18.984375 -18.4375 C 20.460938 -17.613281 21.625 -16.445312 22.46875 -14.9375 C 23.3125 -13.4375 23.734375 -11.691406 23.734375 -9.703125 C 23.734375 -7.703125 23.3125 -5.953125 22.46875 -4.453125 C 21.625 -2.953125 20.460938 -1.785156 18.984375 -0.953125 C 17.503906 -0.128906 15.863281 0.28125 14.0625 0.28125 C 11.582031 0.28125 9.632812 -0.5 8.21875 -2.0625 L 8.21875 7 L 2.59375 7 L 2.59375 -19.40625 L 7.96875 -19.40625 L 7.96875 -17.171875 C 9.363281 -18.847656 11.394531 -19.6875 14.0625 -19.6875 Z M 13.09375 -4.328125 C 14.53125 -4.328125 15.710938 -4.8125 16.640625 -5.78125 C 17.566406 -6.757812 18.03125 -8.066406 18.03125 -9.703125 C 18.03125 -11.335938 17.566406 -12.640625 16.640625 -13.609375 C 15.710938 -14.585938 14.53125 -15.078125 13.09375 -15.078125 C 11.644531 -15.078125 10.457031 -14.585938 9.53125 -13.609375 C 8.613281 -12.640625 8.15625 -11.335938 8.15625 -9.703125 C 8.15625 -8.066406 8.613281 -6.757812 9.53125 -5.78125 C 10.457031 -4.8125 11.644531 -4.328125 13.09375 -4.328125 Z M 13.09375 -4.328125 "/></g></g></g><g fill="#401f0f" fill-opacity="1"><g transform="translate(263.987404, 198.273514)"><g/></g></g><g fill="#401f0f" fill-opacity="1"><g transform="translate(273.472305, 198.273514)"><g><path d="M 27.265625 -19.46875 C 29.691406 -19.46875 31.613281 -18.765625 33.03125 -17.359375 C 34.445312 -15.953125 35.15625 -13.84375 35.15625 -11.03125 L 35.15625 0 L 30.65625 0 L 30.65625 -10.453125 C 30.65625 -12.140625 30.28125 -13.410156 29.53125 -14.265625 C 28.789062 -15.117188 27.722656 -15.546875 26.328125 -15.546875 C 24.804688 -15.546875 23.585938 -15.046875 22.671875 -14.046875 C 21.765625 -13.046875 21.3125 -11.617188 21.3125 -9.765625 L 21.3125 0 L 16.8125 0 L 16.8125 -10.453125 C 16.8125 -12.140625 16.4375 -13.410156 15.6875 -14.265625 C 14.9375 -15.117188 13.867188 -15.546875 12.484375 -15.546875 C 10.941406 -15.546875 9.71875 -15.050781 8.8125 -14.0625 C 7.914062 -13.070312 7.46875 -11.640625 7.46875 -9.765625 L 7.46875 0 L 2.953125 0 L 2.953125 -19.25 L 7.25 -19.25 L 7.25 -16.8125 C 7.96875 -17.675781 8.867188 -18.332031 9.953125 -18.78125 C 11.035156 -19.238281 12.238281 -19.46875 13.5625 -19.46875 C 15 -19.46875 16.273438 -19.195312 17.390625 -18.65625 C 18.515625 -18.113281 19.398438 -17.316406 20.046875 -16.265625 C 20.835938 -17.273438 21.859375 -18.0625 23.109375 -18.625 C 24.359375 -19.1875 25.742188 -19.46875 27.265625 -19.46875 Z M 27.265625 -19.46875 "/></g></g></g><g fill="#401f0f" fill-opacity="1"><g transform="translate(310.721574, 198.273514)"><g><path d="M 10.3125 -19.46875 C 13.144531 -19.46875 15.3125 -18.789062 16.8125 -17.4375 C 18.320312 -16.082031 19.078125 -14.03125 19.078125 -11.28125 L 19.078125 0 L 14.828125 0 L 14.828125 -2.34375 C 14.273438 -1.5 13.484375 -0.851562 12.453125 -0.40625 C 11.429688 0.03125 10.203125 0.25 8.765625 0.25 C 7.316406 0.25 6.050781 0.00390625 4.96875 -0.484375 C 3.894531 -0.972656 3.0625 -1.65625 2.46875 -2.53125 C 1.882812 -3.414062 1.59375 -4.410156 1.59375 -5.515625 C 1.59375 -7.242188 2.234375 -8.628906 3.515625 -9.671875 C 4.804688 -10.722656 6.832031 -11.25 9.59375 -11.25 L 14.5625 -11.25 L 14.5625 -11.546875 C 14.5625 -12.890625 14.160156 -13.921875 13.359375 -14.640625 C 12.554688 -15.359375 11.359375 -15.71875 9.765625 -15.71875 C 8.691406 -15.71875 7.628906 -15.550781 6.578125 -15.21875 C 5.535156 -14.882812 4.65625 -14.414062 3.9375 -13.8125 L 2.15625 -17.09375 C 3.164062 -17.863281 4.378906 -18.453125 5.796875 -18.859375 C 7.222656 -19.265625 8.726562 -19.46875 10.3125 -19.46875 Z M 9.703125 -3.03125 C 10.828125 -3.03125 11.828125 -3.285156 12.703125 -3.796875 C 13.585938 -4.316406 14.207031 -5.054688 14.5625 -6.015625 L 14.5625 -8.265625 L 9.921875 -8.265625 C 7.316406 -8.265625 6.015625 -7.410156 6.015625 -5.703125 C 6.015625 -4.878906 6.335938 -4.226562 6.984375 -3.75 C 7.640625 -3.269531 8.546875 -3.03125 9.703125 -3.03125 Z M 9.703125 -3.03125 "/></g></g></g><g fill="#401f0f" fill-opacity="1"><g transform="translate(331.888264, 198.273514)"><g><path d="M 2.953125 -19.25 L 7.46875 -19.25 L 7.46875 0 L 2.953125 0 Z M 5.234375 -22.4375 C 4.410156 -22.4375 3.722656 -22.691406 3.171875 -23.203125 C 2.617188 -23.722656 2.34375 -24.367188 2.34375 -25.140625 C 2.34375 -25.910156 2.617188 -26.550781 3.171875 -27.0625 C 3.722656 -27.582031 4.410156 -27.84375 5.234375 -27.84375 C 6.046875 -27.84375 6.726562 -27.59375 7.28125 -27.09375 C 7.832031 -26.601562 8.109375 -25.988281 8.109375 -25.25 C 8.109375 -24.445312 7.835938 -23.773438 7.296875 -23.234375 C 6.753906 -22.703125 6.066406 -22.4375 5.234375 -22.4375 Z M 5.234375 -22.4375 "/></g></g></g><g fill="#401f0f" fill-opacity="1"><g transform="translate(341.588003, 198.273514)"><g><path d="M 2.953125 -26.765625 L 7.46875 -26.765625 L 7.46875 0 L 2.953125 0 Z M 2.953125 -26.765625 "/></g></g></g><g fill="#401f0f" fill-opacity="1"><g transform="translate(107.274453, 215.732971)"><g><path d="M 5.484375 -1.515625 L 2.203125 -1.515625 L 1.578125 0 L -0.09375 0 L 3.0625 -7.0625 L 4.671875 -7.0625 L 7.828125 0 L 6.109375 0 Z M 4.96875 -2.75 L 3.859375 -5.453125 L 2.734375 -2.75 Z M 4.96875 -2.75 "/></g></g></g><g fill="#401f0f" fill-opacity="1"><g transform="translate(118.111749, 215.732971)"><g><path d="M 0.84375 -7.0625 L 4.046875 -7.0625 C 4.816406 -7.0625 5.492188 -6.914062 6.078125 -6.625 C 6.671875 -6.332031 7.128906 -5.921875 7.453125 -5.390625 C 7.773438 -4.859375 7.9375 -4.238281 7.9375 -3.53125 C 7.9375 -2.820312 7.773438 -2.203125 7.453125 -1.671875 C 7.128906 -1.140625 6.671875 -0.726562 6.078125 -0.4375 C 5.492188 -0.144531 4.816406 0 4.046875 0 L 0.84375 0 Z M 3.96875 -1.34375 C 4.675781 -1.34375 5.238281 -1.535156 5.65625 -1.921875 C 6.070312 -2.316406 6.28125 -2.851562 6.28125 -3.53125 C 6.28125 -4.207031 6.070312 -4.738281 5.65625 -5.125 C 5.238281 -5.519531 4.675781 -5.71875 3.96875 -5.71875 L 2.46875 -5.71875 L 2.46875 -1.34375 Z M 3.96875 -1.34375 "/></g></g></g><g fill="#401f0f" fill-opacity="1"><g transform="translate(129.554478, 215.732971)"><g><path d="M 0.84375 -7.0625 L 4.046875 -7.0625 C 4.816406 -7.0625 5.492188 -6.914062 6.078125 -6.625 C 6.671875 -6.332031 7.128906 -5.921875 7.453125 -5.390625 C 7.773438 -4.859375 7.9375 -4.238281 7.9375 -3.53125 C 7.9375 -2.820312 7.773438 -2.203125 7.453125 -1.671875 C 7.128906 -1.140625 6.671875 -0.726562 6.078125 -0.4375 C 5.492188 -0.144531 4.816406 0 4.046875 0 L 0.84375 0 Z M 3.96875 -1.34375 C 4.675781 -1.34375 5.238281 -1.535156 5.65625 -1.921875 C 6.070312 -2.316406 6.28125 -2.851562 6.28125 -3.53125 C 6.28125 -4.207031 6.070312 -4.738281 5.65625 -5.125 C 5.238281 -5.519531 4.675781 -5.71875 3.96875 -5.71875 L 2.46875 -5.71875 L 2.46875 -1.34375 Z M 3.96875 -1.34375 "/></g></g></g><g fill="#401f0f" fill-opacity="1"><g transform="translate(140.997208, 215.732971)"><g><path d="M 0.84375 -7.0625 L 2.46875 -7.0625 L 2.46875 0 L 0.84375 0 Z M 0.84375 -7.0625 "/></g></g></g><g fill="#401f0f" fill-opacity="1"><g transform="translate(147.414822, 215.732971)"><g><path d="M 7.3125 -7.0625 L 7.3125 0 L 5.96875 0 L 2.453125 -4.296875 L 2.453125 0 L 0.84375 0 L 0.84375 -7.0625 L 2.1875 -7.0625 L 5.703125 -2.78125 L 5.703125 -7.0625 Z M 7.3125 -7.0625 "/></g></g></g><g fill="#401f0f" fill-opacity="1"><g transform="translate(158.67593, 215.732971)"><g><path d="M 5.609375 -3.640625 L 7.109375 -3.640625 L 7.109375 -0.78125 C 6.722656 -0.488281 6.273438 -0.265625 5.765625 -0.109375 C 5.265625 0.046875 4.757812 0.125 4.25 0.125 C 3.519531 0.125 2.859375 -0.03125 2.265625 -0.34375 C 1.679688 -0.65625 1.222656 -1.085938 0.890625 -1.640625 C 0.554688 -2.203125 0.390625 -2.832031 0.390625 -3.53125 C 0.390625 -4.226562 0.554688 -4.851562 0.890625 -5.40625 C 1.222656 -5.96875 1.6875 -6.40625 2.28125 -6.71875 C 2.875 -7.03125 3.539062 -7.1875 4.28125 -7.1875 C 4.894531 -7.1875 5.453125 -7.082031 5.953125 -6.875 C 6.460938 -6.664062 6.890625 -6.363281 7.234375 -5.96875 L 6.1875 -5 C 5.6875 -5.53125 5.078125 -5.796875 4.359375 -5.796875 C 3.910156 -5.796875 3.507812 -5.703125 3.15625 -5.515625 C 2.8125 -5.328125 2.539062 -5.0625 2.34375 -4.71875 C 2.144531 -4.375 2.046875 -3.976562 2.046875 -3.53125 C 2.046875 -3.09375 2.144531 -2.703125 2.34375 -2.359375 C 2.539062 -2.015625 2.8125 -1.742188 3.15625 -1.546875 C 3.5 -1.359375 3.894531 -1.265625 4.34375 -1.265625 C 4.8125 -1.265625 5.234375 -1.367188 5.609375 -1.578125 Z M 5.609375 -3.640625 "/></g></g></g><g fill="#401f0f" fill-opacity="1"><g transform="translate(169.563679, 215.732971)"><g/></g></g><g fill="#401f0f" fill-opacity="1"><g transform="translate(175.527211, 215.732971)"><g><path d="M 2.46875 -5.75 L 2.46875 -3.890625 L 5.75 -3.890625 L 5.75 -2.578125 L 2.46875 -2.578125 L 2.46875 0 L 0.84375 0 L 0.84375 -7.0625 L 6.171875 -7.0625 L 6.171875 -5.75 Z M 2.46875 -5.75 "/></g></g></g><g fill="#401f0f" fill-opacity="1"><g transform="translate(185.083005, 215.732971)"><g><path d="M 0.84375 -7.0625 L 2.46875 -7.0625 L 2.46875 -1.328125 L 6.015625 -1.328125 L 6.015625 0 L 0.84375 0 Z M 0.84375 -7.0625 "/></g></g></g><g fill="#401f0f" fill-opacity="1"><g transform="translate(194.285619, 215.732971)"><g><path d="M 5.484375 -1.515625 L 2.203125 -1.515625 L 1.578125 0 L -0.09375 0 L 3.0625 -7.0625 L 4.671875 -7.0625 L 7.828125 0 L 6.109375 0 Z M 4.96875 -2.75 L 3.859375 -5.453125 L 2.734375 -2.75 Z M 4.96875 -2.75 "/></g></g></g><g fill="#401f0f" fill-opacity="1"><g transform="translate(205.122913, 215.732971)"><g><path d="M 7.625 -7.0625 L 4.578125 0 L 2.953125 0 L -0.09375 -7.0625 L 1.671875 -7.0625 L 3.828125 -2.015625 L 6 -7.0625 Z M 7.625 -7.0625 "/></g></g></g><g fill="#401f0f" fill-opacity="1"><g transform="translate(215.758399, 215.732971)"><g><path d="M 4.265625 0.125 C 3.523438 0.125 2.859375 -0.03125 2.265625 -0.34375 C 1.679688 -0.664062 1.222656 -1.101562 0.890625 -1.65625 C 0.554688 -2.21875 0.390625 -2.84375 0.390625 -3.53125 C 0.390625 -4.226562 0.554688 -4.851562 0.890625 -5.40625 C 1.222656 -5.957031 1.679688 -6.390625 2.265625 -6.703125 C 2.859375 -7.023438 3.523438 -7.1875 4.265625 -7.1875 C 4.992188 -7.1875 5.648438 -7.023438 6.234375 -6.703125 C 6.816406 -6.390625 7.273438 -5.957031 7.609375 -5.40625 C 7.953125 -4.851562 8.125 -4.226562 8.125 -3.53125 C 8.125 -2.84375 7.953125 -2.21875 7.609375 -1.65625 C 7.273438 -1.101562 6.816406 -0.664062 6.234375 -0.34375 C 5.648438 -0.03125 4.992188 0.125 4.265625 0.125 Z M 4.265625 -1.265625 C 4.679688 -1.265625 5.054688 -1.359375 5.390625 -1.546875 C 5.722656 -1.742188 5.984375 -2.015625 6.171875 -2.359375 C 6.367188 -2.703125 6.46875 -3.09375 6.46875 -3.53125 C 6.46875 -3.96875 6.367188 -4.359375 6.171875 -4.703125 C 5.984375 -5.046875 5.722656 -5.3125 5.390625 -5.5 C 5.054688 -5.695312 4.679688 -5.796875 4.265625 -5.796875 C 3.847656 -5.796875 3.46875 -5.695312 3.125 -5.5 C 2.789062 -5.3125 2.523438 -5.046875 2.328125 -4.703125 C 2.140625 -4.359375 2.046875 -3.96875 2.046875 -3.53125 C 2.046875 -3.09375 2.140625 -2.703125 2.328125 -2.359375 C 2.523438 -2.015625 2.789062 -1.742188 3.125 -1.546875 C 3.46875 -1.359375 3.847656 -1.265625 4.265625 -1.265625 Z M 4.265625 -1.265625 "/></g></g></g><g fill="#401f0f" fill-opacity="1"><g transform="translate(227.38276, 215.732971)"><g><path d="M 5.34375 0 L 3.984375 -1.96875 L 2.46875 -1.96875 L 2.46875 0 L 0.84375 0 L 0.84375 -7.0625 L 3.890625 -7.0625 C 4.515625 -7.0625 5.054688 -6.957031 5.515625 -6.75 C 5.984375 -6.539062 6.34375 -6.242188 6.59375 -5.859375 C 6.84375 -5.484375 6.96875 -5.03125 6.96875 -4.5 C 6.96875 -3.976562 6.835938 -3.523438 6.578125 -3.140625 C 6.328125 -2.765625 5.972656 -2.472656 5.515625 -2.265625 L 7.09375 0 Z M 5.3125 -4.5 C 5.3125 -4.894531 5.179688 -5.195312 4.921875 -5.40625 C 4.671875 -5.625 4.300781 -5.734375 3.8125 -5.734375 L 2.46875 -5.734375 L 2.46875 -3.265625 L 3.8125 -3.265625 C 4.300781 -3.265625 4.671875 -3.375 4.921875 -3.59375 C 5.179688 -3.8125 5.3125 -4.113281 5.3125 -4.5 Z M 5.3125 -4.5 "/></g></g></g><g fill="#401f0f" fill-opacity="1"><g transform="translate(237.907253, 215.732971)"><g/></g></g><g fill="#401f0f" fill-opacity="1"><g transform="translate(243.870785, 215.732971)"><g><path d="M 2.296875 -5.734375 L 0.046875 -5.734375 L 0.046875 -7.0625 L 6.203125 -7.0625 L 6.203125 -5.734375 L 3.9375 -5.734375 L 3.9375 0 L 2.296875 0 Z M 2.296875 -5.734375 "/></g></g></g><g fill="#401f0f" fill-opacity="1"><g transform="translate(253.214666, 215.732971)"><g><path d="M 4.265625 0.125 C 3.523438 0.125 2.859375 -0.03125 2.265625 -0.34375 C 1.679688 -0.664062 1.222656 -1.101562 0.890625 -1.65625 C 0.554688 -2.21875 0.390625 -2.84375 0.390625 -3.53125 C 0.390625 -4.226562 0.554688 -4.851562 0.890625 -5.40625 C 1.222656 -5.957031 1.679688 -6.390625 2.265625 -6.703125 C 2.859375 -7.023438 3.523438 -7.1875 4.265625 -7.1875 C 4.992188 -7.1875 5.648438 -7.023438 6.234375 -6.703125 C 6.816406 -6.390625 7.273438 -5.957031 7.609375 -5.40625 C 7.953125 -4.851562 8.125 -4.226562 8.125 -3.53125 C 8.125 -2.84375 7.953125 -2.21875 7.609375 -1.65625 C 7.273438 -1.101562 6.816406 -0.664062 6.234375 -0.34375 C 5.648438 -0.03125 4.992188 0.125 4.265625 0.125 Z M 4.265625 -1.265625 C 4.679688 -1.265625 5.054688 -1.359375 5.390625 -1.546875 C 5.722656 -1.742188 5.984375 -2.015625 6.171875 -2.359375 C 6.367188 -2.703125 6.46875 -3.09375 6.46875 -3.53125 C 6.46875 -3.96875 6.367188 -4.359375 6.171875 -4.703125 C 5.984375 -5.046875 5.722656 -5.3125 5.390625 -5.5 C 5.054688 -5.695312 4.679688 -5.796875 4.265625 -5.796875 C 3.847656 -5.796875 3.46875 -5.695312 3.125 -5.5 C 2.789062 -5.3125 2.523438 -5.046875 2.328125 -4.703125 C 2.140625 -4.359375 2.046875 -3.96875 2.046875 -3.53125 C 2.046875 -3.09375 2.140625 -2.703125 2.328125 -2.359375 C 2.523438 -2.015625 2.789062 -1.742188 3.125 -1.546875 C 3.46875 -1.359375 3.847656 -1.265625 4.265625 -1.265625 Z M 4.265625 -1.265625 "/></g></g></g><g fill="#401f0f" fill-opacity="1"><g transform="translate(264.839027, 215.732971)"><g/></g></g><g fill="#401f0f" fill-opacity="1"><g transform="translate(270.802559, 215.732971)"><g><path d="M 6.3125 -1.3125 L 6.3125 0 L 0.84375 0 L 0.84375 -7.0625 L 6.171875 -7.0625 L 6.171875 -5.75 L 2.46875 -5.75 L 2.46875 -4.21875 L 5.75 -4.21875 L 5.75 -2.953125 L 2.46875 -2.953125 L 2.46875 -1.3125 Z M 6.3125 -1.3125 "/></g></g></g><g fill="#401f0f" fill-opacity="1"><g transform="translate(280.681253, 215.732971)"><g><path d="M 7.265625 0 L 7.25 -4.234375 L 5.171875 -0.75 L 4.4375 -0.75 L 2.375 -4.15625 L 2.375 0 L 0.84375 0 L 0.84375 -7.0625 L 2.1875 -7.0625 L 4.828125 -2.671875 L 7.4375 -7.0625 L 8.78125 -7.0625 L 8.796875 0 Z M 7.265625 0 "/></g></g></g><g fill="#401f0f" fill-opacity="1"><g transform="translate(293.425677, 215.732971)"><g><path d="M 5.484375 -1.515625 L 2.203125 -1.515625 L 1.578125 0 L -0.09375 0 L 3.0625 -7.0625 L 4.671875 -7.0625 L 7.828125 0 L 6.109375 0 Z M 4.96875 -2.75 L 3.859375 -5.453125 L 2.734375 -2.75 Z M 4.96875 -2.75 "/></g></g></g><g fill="#401f0f" fill-opacity="1"><g transform="translate(304.262972, 215.732971)"><g><path d="M 0.84375 -7.0625 L 2.46875 -7.0625 L 2.46875 0 L 0.84375 0 Z M 0.84375 -7.0625 "/></g></g></g><g fill="#401f0f" fill-opacity="1"><g transform="translate(310.680586, 215.732971)"><g><path d="M 0.84375 -7.0625 L 2.46875 -7.0625 L 2.46875 -1.328125 L 6.015625 -1.328125 L 6.015625 0 L 0.84375 0 Z M 0.84375 -7.0625 "/></g></g></g><g fill="#401f0f" fill-opacity="1"><g transform="translate(319.885342, 215.732971)"><g/></g></g></svg>